<mxfile host="app.diagrams.net" modified="2020-04-12T06:19:23.266Z" agent="5.0 (Macintosh; Intel Mac OS X 10_13_6) AppleWebKit/537.36 (KHTML, like Gecko) Chrome/80.0.3987.163 Safari/537.36" etag="bzavtP95xbwYzQaTOo8R" version="12.9.10" type="github" pages="3">
  <diagram id="96Cq-N8KqIH8uVRwFIOk" name="Overview">
    <mxGraphModel dx="506" dy="267" grid="1" gridSize="10" guides="1" tooltips="1" connect="1" arrows="1" fold="1" page="1" pageScale="1" pageWidth="500" pageHeight="300" math="0" shadow="0">
      <root>
        <mxCell id="0" />
        <mxCell id="1" parent="0" />
        <mxCell id="WIhT88IUn4sQt4fcTsB7-8" value="" style="shape=process;whiteSpace=wrap;html=1;backgroundOutline=1;fillColor=#FFCCCC;" parent="1" vertex="1">
          <mxGeometry x="220" y="170" width="200" height="90" as="geometry" />
        </mxCell>
        <mxCell id="WIhT88IUn4sQt4fcTsB7-7" value="" style="shape=process;whiteSpace=wrap;html=1;backgroundOutline=1;fillColor=#FFDDCC;" parent="1" vertex="1">
          <mxGeometry x="220" y="50" width="200" height="110" as="geometry" />
        </mxCell>
        <mxCell id="gORORX4qRVJOmpLnlzUQ-1" value="WAN" style="ellipse;shape=cloud;whiteSpace=wrap;html=1;" parent="1" vertex="1">
          <mxGeometry y="10" width="50" height="30" as="geometry" />
        </mxCell>
        <mxCell id="gORORX4qRVJOmpLnlzUQ-4" value="LAN SDN&lt;br&gt;&lt;font style=&quot;font-size: 8px&quot;&gt;drp - scripts&lt;/font&gt;" style="rounded=1;whiteSpace=wrap;html=1;fillColor=#CCFFCC;" parent="1" vertex="1">
          <mxGeometry x="110" y="10" width="110" height="30" as="geometry" />
        </mxCell>
        <mxCell id="gORORX4qRVJOmpLnlzUQ-6" value="CPU SDC&lt;br&gt;&lt;font style=&quot;font-size: 8px&quot;&gt;drp -&amp;nbsp; XCP-ng - k8s&lt;/font&gt;" style="rounded=1;whiteSpace=wrap;html=1;fillColor=#FFCCCC;" parent="1" vertex="1">
          <mxGeometry x="220" y="10" width="120" height="30" as="geometry" />
        </mxCell>
        <mxCell id="gORORX4qRVJOmpLnlzUQ-7" value="&amp;nbsp;Storage SDS&lt;br&gt;&lt;font style=&quot;font-size: 8px&quot;&gt;drp - freeNAS - XCP-ng&lt;/font&gt;" style="rounded=1;whiteSpace=wrap;html=1;fillColor=#CC99FF;" parent="1" vertex="1">
          <mxGeometry x="340" y="10" width="140" height="30" as="geometry" />
        </mxCell>
        <mxCell id="gORORX4qRVJOmpLnlzUQ-2" value="POE&lt;br&gt;&lt;font style=&quot;font-size: 8px&quot;&gt;pfsense&lt;/font&gt;" style="rounded=1;whiteSpace=wrap;html=1;fillColor=#FF9999;" parent="1" vertex="1">
          <mxGeometry x="70" y="10" width="40" height="30" as="geometry" />
        </mxCell>
        <mxCell id="gORORX4qRVJOmpLnlzUQ-8" value="" style="endArrow=classic;startArrow=classic;html=1;exitX=0.875;exitY=0.5;exitDx=0;exitDy=0;exitPerimeter=0;" parent="1" source="gORORX4qRVJOmpLnlzUQ-1" target="gORORX4qRVJOmpLnlzUQ-2" edge="1">
          <mxGeometry width="50" height="50" relative="1" as="geometry">
            <mxPoint x="53.75" y="25" as="sourcePoint" />
            <mxPoint x="120" y="25" as="targetPoint" />
          </mxGeometry>
        </mxCell>
        <mxCell id="gORORX4qRVJOmpLnlzUQ-9" value="vm ubuntu" style="shape=hexagon;perimeter=hexagonPerimeter2;whiteSpace=wrap;html=1;" parent="1" vertex="1">
          <mxGeometry x="240" y="90" width="100" height="20" as="geometry" />
        </mxCell>
        <mxCell id="gORORX4qRVJOmpLnlzUQ-10" value="local" style="shape=cylinder;whiteSpace=wrap;html=1;boundedLbl=1;backgroundOutline=1;" parent="1" vertex="1">
          <mxGeometry x="340" y="90" width="40" height="20" as="geometry" />
        </mxCell>
        <mxCell id="gORORX4qRVJOmpLnlzUQ-12" value="vm ubuntu" style="shape=hexagon;perimeter=hexagonPerimeter2;whiteSpace=wrap;html=1;" parent="1" vertex="1">
          <mxGeometry x="240" y="110" width="100" height="20" as="geometry" />
        </mxCell>
        <mxCell id="gORORX4qRVJOmpLnlzUQ-16" value="XCP-ng" style="text;html=1;resizable=0;autosize=1;align=center;verticalAlign=middle;points=[];fillColor=none;strokeColor=none;rounded=0;" parent="1" vertex="1">
          <mxGeometry x="240" y="50" width="60" height="20" as="geometry" />
        </mxCell>
        <mxCell id="gORORX4qRVJOmpLnlzUQ-21" value="bare metal" style="text;html=1;resizable=0;autosize=1;align=center;verticalAlign=middle;points=[];fillColor=none;strokeColor=none;rounded=0;" parent="1" vertex="1">
          <mxGeometry x="240" y="240" width="70" height="20" as="geometry" />
        </mxCell>
        <mxCell id="gORORX4qRVJOmpLnlzUQ-24" value="vm centos" style="shape=hexagon;perimeter=hexagonPerimeter2;whiteSpace=wrap;html=1;" parent="1" vertex="1">
          <mxGeometry x="240" y="130" width="100" height="20" as="geometry" />
        </mxCell>
        <mxCell id="gORORX4qRVJOmpLnlzUQ-25" value="windows 10" style="shape=hexagon;perimeter=hexagonPerimeter2;whiteSpace=wrap;html=1;" parent="1" vertex="1">
          <mxGeometry x="240" y="195" width="100" height="20" as="geometry" />
        </mxCell>
        <mxCell id="gORORX4qRVJOmpLnlzUQ-26" value="&lt;font style=&quot;font-size: 10px&quot;&gt;DCHP&lt;br&gt;iPXE&lt;/font&gt;&lt;br&gt;&lt;font style=&quot;font-size: 6px&quot;&gt;vlan 1&lt;br&gt;subnet&lt;br&gt;192.&lt;br&gt;168.&lt;br&gt;0.&lt;br&gt;0&lt;br&gt;/22&lt;br&gt;&lt;/font&gt;" style="rounded=1;whiteSpace=wrap;html=1;fillColor=#DDFFAA;" parent="1" vertex="1">
          <mxGeometry x="110" y="50" width="30" height="210" as="geometry" />
        </mxCell>
        <mxCell id="gORORX4qRVJOmpLnlzUQ-27" value="&lt;font style=&quot;font-size: 10px&quot;&gt;prod&lt;/font&gt;&lt;font style=&quot;font-size: 6px&quot;&gt;&amp;nbsp;&lt;br&gt;vlan 12^&lt;br&gt;subnet&lt;br&gt;192.&lt;br&gt;168.&lt;br&gt;12^.&lt;br&gt;0&lt;br&gt;/24&lt;br&gt;&lt;/font&gt;" style="rounded=1;whiteSpace=wrap;html=1;fillColor=#CCCC00;" parent="1" vertex="1">
          <mxGeometry x="170" y="90" width="30" height="130" as="geometry" />
        </mxCell>
        <mxCell id="gORORX4qRVJOmpLnlzUQ-28" value="&lt;font style=&quot;font-size: 10px&quot;&gt;admin&lt;/font&gt;&lt;font style=&quot;font-size: 6px&quot;&gt;&amp;nbsp;&lt;br&gt;vlan 9&lt;br&gt;subnet&lt;br&gt;192.&lt;br&gt;168.&lt;br&gt;9.&lt;br&gt;0&lt;br&gt;/24&lt;br&gt;&lt;br&gt;&lt;/font&gt;" style="rounded=1;whiteSpace=wrap;html=1;fillColor=#CCFFCC;" parent="1" vertex="1">
          <mxGeometry x="140" y="70" width="30" height="170" as="geometry" />
        </mxCell>
        <mxCell id="gORORX4qRVJOmpLnlzUQ-29" value="&lt;font&gt;&lt;font style=&quot;font-size: 8px&quot;&gt;FreeNAS&lt;/font&gt;&lt;br&gt;&lt;span style=&quot;font-size: 10px&quot;&gt;NFS&lt;/span&gt;&lt;br&gt;&lt;span style=&quot;font-size: 10px&quot;&gt;Storage&lt;/span&gt;&lt;/font&gt;&lt;font style=&quot;font-size: 6px&quot;&gt;&amp;nbsp;&lt;br&gt;vlan 208&lt;br&gt;subnet&lt;br&gt;192.&lt;br&gt;168.&lt;br&gt;208.&lt;br&gt;0&lt;br&gt;/20&lt;br&gt;&lt;/font&gt;" style="rounded=1;whiteSpace=wrap;html=1;fillColor=#CC99FF;" parent="1" vertex="1">
          <mxGeometry x="440" y="50" width="40" height="210" as="geometry" />
        </mxCell>
        <mxCell id="gORORX4qRVJOmpLnlzUQ-30" value="local" style="shape=cylinder;whiteSpace=wrap;html=1;boundedLbl=1;backgroundOutline=1;" parent="1" vertex="1">
          <mxGeometry x="340" y="195" width="40" height="20" as="geometry" />
        </mxCell>
        <mxCell id="gORORX4qRVJOmpLnlzUQ-31" value="local" style="shape=cylinder;whiteSpace=wrap;html=1;boundedLbl=1;backgroundOutline=1;" parent="1" vertex="1">
          <mxGeometry x="340" y="110" width="40" height="20" as="geometry" />
        </mxCell>
        <mxCell id="gORORX4qRVJOmpLnlzUQ-34" value="" style="endArrow=classic;startArrow=classic;html=1;exitX=1;exitY=0.5;exitDx=0;exitDy=0;entryX=-0.029;entryY=0.332;entryDx=0;entryDy=0;entryPerimeter=0;" parent="1" source="gORORX4qRVJOmpLnlzUQ-24" edge="1">
          <mxGeometry width="50" height="50" relative="1" as="geometry">
            <mxPoint x="220" y="220" as="sourcePoint" />
            <mxPoint x="438.8399999999999" y="139.71999999999997" as="targetPoint" />
          </mxGeometry>
        </mxCell>
        <mxCell id="gORORX4qRVJOmpLnlzUQ-35" value="&lt;font style=&quot;font-size: 8px&quot;&gt;iSCSI&lt;/font&gt;" style="text;html=1;align=center;verticalAlign=middle;resizable=0;points=[];labelBackgroundColor=#ffffff;" parent="gORORX4qRVJOmpLnlzUQ-34" vertex="1" connectable="0">
          <mxGeometry x="-0.4557" y="-2" relative="1" as="geometry">
            <mxPoint x="23.71" y="-1.92" as="offset" />
          </mxGeometry>
        </mxCell>
        <mxCell id="gORORX4qRVJOmpLnlzUQ-37" value="" style="endArrow=classic;startArrow=classic;html=1;exitX=1;exitY=0.5;exitDx=0;exitDy=0;entryX=0;entryY=0.233;entryDx=0;entryDy=0;entryPerimeter=0;" parent="1" source="gORORX4qRVJOmpLnlzUQ-31" edge="1">
          <mxGeometry width="50" height="50" relative="1" as="geometry">
            <mxPoint x="220" y="220" as="sourcePoint" />
            <mxPoint x="440" y="118.93" as="targetPoint" />
          </mxGeometry>
        </mxCell>
        <mxCell id="gORORX4qRVJOmpLnlzUQ-38" value="&lt;font style=&quot;font-size: 8px&quot;&gt;nfs&lt;/font&gt;" style="text;html=1;align=center;verticalAlign=middle;resizable=0;points=[];labelBackgroundColor=#ffffff;" parent="gORORX4qRVJOmpLnlzUQ-37" vertex="1" connectable="0">
          <mxGeometry x="0.0284" relative="1" as="geometry">
            <mxPoint as="offset" />
          </mxGeometry>
        </mxCell>
        <mxCell id="gORORX4qRVJOmpLnlzUQ-39" value="" style="endArrow=classic;startArrow=classic;html=1;exitX=1;exitY=0.5;exitDx=0;exitDy=0;entryX=0;entryY=0.91;entryDx=0;entryDy=0;entryPerimeter=0;" parent="1" source="gORORX4qRVJOmpLnlzUQ-30" edge="1">
          <mxGeometry width="50" height="50" relative="1" as="geometry">
            <mxPoint x="390" y="75" as="sourcePoint" />
            <mxPoint x="440" y="206.10000000000002" as="targetPoint" />
          </mxGeometry>
        </mxCell>
        <mxCell id="gORORX4qRVJOmpLnlzUQ-40" value="&lt;font style=&quot;font-size: 8px&quot;&gt;nfs&lt;/font&gt;" style="text;html=1;align=center;verticalAlign=middle;resizable=0;points=[];labelBackgroundColor=#ffffff;" parent="gORORX4qRVJOmpLnlzUQ-39" vertex="1" connectable="0">
          <mxGeometry x="0.0284" relative="1" as="geometry">
            <mxPoint as="offset" />
          </mxGeometry>
        </mxCell>
        <mxCell id="WIhT88IUn4sQt4fcTsB7-1" value="" style="endArrow=classic;html=1;" parent="1" target="gORORX4qRVJOmpLnlzUQ-16" edge="1">
          <mxGeometry width="50" height="50" relative="1" as="geometry">
            <mxPoint x="140" y="60" as="sourcePoint" />
            <mxPoint x="200" y="60" as="targetPoint" />
          </mxGeometry>
        </mxCell>
        <mxCell id="WIhT88IUn4sQt4fcTsB7-3" value="" style="endArrow=classic;startArrow=classic;html=1;exitX=1.019;exitY=0.056;exitDx=0;exitDy=0;exitPerimeter=0;" parent="1" source="gORORX4qRVJOmpLnlzUQ-28" edge="1">
          <mxGeometry width="50" height="50" relative="1" as="geometry">
            <mxPoint x="181" y="69" as="sourcePoint" />
            <mxPoint x="219" y="80" as="targetPoint" />
          </mxGeometry>
        </mxCell>
        <mxCell id="WIhT88IUn4sQt4fcTsB7-4" value="" style="endArrow=classic;startArrow=classic;html=1;exitX=0.971;exitY=0.937;exitDx=0;exitDy=0;exitPerimeter=0;entryX=0;entryY=0.652;entryDx=0;entryDy=0;entryPerimeter=0;" parent="1" source="gORORX4qRVJOmpLnlzUQ-28" target="WIhT88IUn4sQt4fcTsB7-8" edge="1">
          <mxGeometry width="50" height="50" relative="1" as="geometry">
            <mxPoint x="181.56999999999994" y="240.95999999999998" as="sourcePoint" />
            <mxPoint x="220" y="240.88" as="targetPoint" />
          </mxGeometry>
        </mxCell>
        <mxCell id="WIhT88IUn4sQt4fcTsB7-5" value="" style="endArrow=classic;html=1;" parent="1" target="gORORX4qRVJOmpLnlzUQ-21" edge="1">
          <mxGeometry width="50" height="50" relative="1" as="geometry">
            <mxPoint x="140" y="250" as="sourcePoint" />
            <mxPoint x="218.56" y="260.46" as="targetPoint" />
          </mxGeometry>
        </mxCell>
        <mxCell id="WIhT88IUn4sQt4fcTsB7-10" value="" style="endArrow=classic;startArrow=classic;html=1;entryX=0;entryY=0.5;entryDx=0;entryDy=0;exitX=1;exitY=0.885;exitDx=0;exitDy=0;exitPerimeter=0;" parent="1" source="gORORX4qRVJOmpLnlzUQ-27" target="gORORX4qRVJOmpLnlzUQ-25" edge="1">
          <mxGeometry width="50" height="50" relative="1" as="geometry">
            <mxPoint x="220" y="220" as="sourcePoint" />
            <mxPoint x="270" y="170" as="targetPoint" />
          </mxGeometry>
        </mxCell>
        <mxCell id="WIhT88IUn4sQt4fcTsB7-11" value="" style="endArrow=classic;startArrow=classic;html=1;entryX=0;entryY=0.5;entryDx=0;entryDy=0;exitX=1;exitY=0.385;exitDx=0;exitDy=0;exitPerimeter=0;" parent="1" source="gORORX4qRVJOmpLnlzUQ-27" target="gORORX4qRVJOmpLnlzUQ-24" edge="1">
          <mxGeometry width="50" height="50" relative="1" as="geometry">
            <mxPoint x="202" y="140" as="sourcePoint" />
            <mxPoint x="250" y="215" as="targetPoint" />
          </mxGeometry>
        </mxCell>
        <mxCell id="WIhT88IUn4sQt4fcTsB7-12" value="" style="endArrow=classic;startArrow=classic;html=1;entryX=0;entryY=0.5;entryDx=0;entryDy=0;exitX=1;exitY=0.219;exitDx=0;exitDy=0;exitPerimeter=0;" parent="1" source="gORORX4qRVJOmpLnlzUQ-27" target="gORORX4qRVJOmpLnlzUQ-12" edge="1">
          <mxGeometry width="50" height="50" relative="1" as="geometry">
            <mxPoint x="211.71000000000004" y="150.18000000000006" as="sourcePoint" />
            <mxPoint x="250" y="150" as="targetPoint" />
          </mxGeometry>
        </mxCell>
        <mxCell id="WIhT88IUn4sQt4fcTsB7-13" value="" style="endArrow=classic;startArrow=classic;html=1;entryX=0;entryY=0.5;entryDx=0;entryDy=0;" parent="1" target="gORORX4qRVJOmpLnlzUQ-9" edge="1">
          <mxGeometry width="50" height="50" relative="1" as="geometry">
            <mxPoint x="200" y="100" as="sourcePoint" />
            <mxPoint x="250" y="130" as="targetPoint" />
          </mxGeometry>
        </mxCell>
      </root>
    </mxGraphModel>
  </diagram>
  <diagram id="GCbaZbQBSZyaLJM0uTl-" name="POE">
    <mxGraphModel dx="1062" dy="561" grid="1" gridSize="10" guides="1" tooltips="1" connect="1" arrows="1" fold="1" page="1" pageScale="1" pageWidth="500" pageHeight="300" math="0" shadow="0">
      <root>
        <mxCell id="dTnVFpNTgqZMKmTG0Yd8-0" />
        <mxCell id="dTnVFpNTgqZMKmTG0Yd8-1" parent="dTnVFpNTgqZMKmTG0Yd8-0" />
      </root>
    </mxGraphModel>
  </diagram>
  <diagram id="Fta4vVxWCjThTY8wMdYY" name="CPU-SDN">
    <mxGraphModel dx="732" dy="387" grid="1" gridSize="10" guides="1" tooltips="1" connect="1" arrows="1" fold="1" page="1" pageScale="1" pageWidth="500" pageHeight="300" math="0" shadow="0">
      <root>
        <mxCell id="Op90g9GdmpZV8O9tdTCq-0" />
        <mxCell id="Op90g9GdmpZV8O9tdTCq-1" parent="Op90g9GdmpZV8O9tdTCq-0" />
        <mxCell id="Op90g9GdmpZV8O9tdTCq-2" value="hsg01&lt;br&gt;&lt;font style=&quot;font-size: 8px&quot;&gt;&lt;font color=&quot;#009900&quot;&gt;ADM-VLAN 9&lt;br&gt;192.168.9.121/24&lt;/font&gt;&lt;br&gt;&lt;font color=&quot;#7f00ff&quot;&gt;NAS-VLAN 249&lt;br&gt;192.168.249.121/24&lt;/font&gt;&lt;br&gt;&lt;font color=&quot;#cccc00&quot;&gt;HSG-VLAN 13&lt;br&gt;192.168.13.121/24&lt;/font&gt;&lt;br&gt;&lt;/font&gt;" style="rounded=0;whiteSpace=wrap;html=1;" vertex="1" parent="Op90g9GdmpZV8O9tdTCq-1">
          <mxGeometry x="210" width="80" height="120" as="geometry" />
        </mxCell>
        <mxCell id="keYLLZCx4w3tfvv4nFYn-0" value="10GB Cisco" style="rounded=1;whiteSpace=wrap;html=1;" vertex="1" parent="Op90g9GdmpZV8O9tdTCq-1">
          <mxGeometry x="210" y="120" width="160" height="40" as="geometry" />
        </mxCell>
        <mxCell id="keYLLZCx4w3tfvv4nFYn-1" value="hsv1&lt;br&gt;&lt;br&gt;FreeNAS&lt;br&gt;iSCSI&lt;br&gt;NFS&lt;br&gt;&lt;br&gt;&lt;font color=&quot;#6600cc&quot;&gt;&lt;font style=&quot;font-size: 10px&quot;&gt;VLAN 249&lt;/font&gt;&lt;br&gt;&lt;font style=&quot;font-size: 10px&quot;&gt;192.168.249.251/24&lt;/font&gt;&lt;/font&gt;" style="rounded=0;whiteSpace=wrap;html=1;" vertex="1" parent="Op90g9GdmpZV8O9tdTCq-1">
          <mxGeometry x="370" width="110" height="280" as="geometry" />
        </mxCell>
        <mxCell id="keYLLZCx4w3tfvv4nFYn-3" value="1GB" style="rounded=1;whiteSpace=wrap;html=1;" vertex="1" parent="Op90g9GdmpZV8O9tdTCq-1">
          <mxGeometry x="180" y="120" width="30" height="40" as="geometry" />
        </mxCell>
        <mxCell id="keYLLZCx4w3tfvv4nFYn-4" value="pfsense&lt;br&gt;&lt;font style=&quot;font-size: 8px&quot;&gt;&lt;font color=&quot;#ff3333&quot;&gt;WAN 192.168.254.209/24&lt;/font&gt;&lt;br&gt;iPXE 192.168.3.1/24&lt;br&gt;&lt;font color=&quot;#00cc00&quot;&gt;ADM 192.168.9.1/24&lt;/font&gt;&lt;br&gt;&lt;font color=&quot;#7f00ff&quot;&gt;NAS 192.168.249.1/24&lt;br&gt;&lt;/font&gt;&lt;font color=&quot;#cccc00&quot;&gt;HSG 192.168.13.1/24&lt;/font&gt;&lt;br&gt;&lt;/font&gt;" style="rounded=0;whiteSpace=wrap;html=1;" vertex="1" parent="Op90g9GdmpZV8O9tdTCq-1">
          <mxGeometry x="80" y="40" width="100" height="200" as="geometry" />
        </mxCell>
        <mxCell id="keYLLZCx4w3tfvv4nFYn-5" value="1GB" style="rounded=1;whiteSpace=wrap;html=1;" vertex="1" parent="Op90g9GdmpZV8O9tdTCq-1">
          <mxGeometry x="40" y="120" width="40" height="40" as="geometry" />
        </mxCell>
        <mxCell id="keYLLZCx4w3tfvv4nFYn-6" value="&lt;font color=&quot;#ff0000&quot;&gt;WAN&lt;/font&gt;" style="ellipse;shape=cloud;whiteSpace=wrap;html=1;" vertex="1" parent="Op90g9GdmpZV8O9tdTCq-1">
          <mxGeometry y="70" width="50" height="140" as="geometry" />
        </mxCell>
        <mxCell id="5YD8A6rW1PZKI0WFTY4t-0" value="hsg02&lt;br&gt;&lt;font style=&quot;font-size: 8px&quot;&gt;&lt;font color=&quot;#009900&quot;&gt;ADM-VLAN 9&lt;br&gt;192.168.9.122/24&lt;/font&gt;&lt;br&gt;&lt;font color=&quot;#7f00ff&quot;&gt;NAS-VLAN 249&lt;br&gt;192.168.249.122/24&lt;/font&gt;&lt;br&gt;&lt;font color=&quot;#cccc00&quot;&gt;HSG-VLAN 13&lt;br&gt;192.168.13.122/24&lt;/font&gt;&lt;br&gt;&lt;/font&gt;" style="rounded=0;whiteSpace=wrap;html=1;" vertex="1" parent="Op90g9GdmpZV8O9tdTCq-1">
          <mxGeometry x="290" width="80" height="120" as="geometry" />
        </mxCell>
        <mxCell id="5YD8A6rW1PZKI0WFTY4t-1" value="hsg03&lt;br&gt;&lt;font style=&quot;font-size: 8px&quot;&gt;&lt;font color=&quot;#009900&quot;&gt;ADM-VLAN 9&lt;br&gt;192.168.9.123/24&lt;/font&gt;&lt;br&gt;&lt;font color=&quot;#7f00ff&quot;&gt;NAS-VLAN 249&lt;br&gt;192.168.249.123/24&lt;/font&gt;&lt;br&gt;&lt;font color=&quot;#cccc00&quot;&gt;HSG-VLAN 13&lt;br&gt;192.168.13.123/24&lt;/font&gt;&lt;br&gt;&lt;/font&gt;" style="rounded=0;whiteSpace=wrap;html=1;" vertex="1" parent="Op90g9GdmpZV8O9tdTCq-1">
          <mxGeometry x="210" y="160" width="80" height="120" as="geometry" />
        </mxCell>
        <mxCell id="5YD8A6rW1PZKI0WFTY4t-2" value="hsg04&lt;br&gt;&lt;font style=&quot;font-size: 8px&quot;&gt;&lt;font color=&quot;#009900&quot;&gt;ADM-VLAN 9&lt;br&gt;192.168.9.124/24&lt;/font&gt;&lt;br&gt;&lt;font color=&quot;#7f00ff&quot;&gt;NAS-VLAN 249&lt;br&gt;192.168.249.124/24&lt;/font&gt;&lt;br&gt;&lt;font color=&quot;#cccc00&quot;&gt;HSG-VLAN 13&lt;br&gt;192.168.13.124/24&lt;/font&gt;&lt;br&gt;&lt;/font&gt;" style="rounded=0;whiteSpace=wrap;html=1;" vertex="1" parent="Op90g9GdmpZV8O9tdTCq-1">
          <mxGeometry x="290" y="160" width="80" height="120" as="geometry" />
        </mxCell>
      </root>
    </mxGraphModel>
  </diagram>
</mxfile>
